<svg width="143" height="36" viewBox="0 0 143 36" fill="none" xmlns="http://www.w3.org/2000/svg">
<path d="M0.406875 35H25.9429V27.464H9.91088V1.4H0.406875V35ZM46.1321 35.672C56.8841 35.672 64.8041 28.28 64.8041 18.2C64.8041 8.12 56.8841 0.727998 46.1321 0.727998C35.3801 0.727998 27.4601 8.12 27.4601 18.2C27.4601 28.28 35.3801 35.672 46.1321 35.672ZM46.1321 27.8C41.0441 27.8 37.0601 24.008 37.0601 18.2C37.0601 12.392 41.0441 8.6 46.1321 8.6C51.2201 8.6 55.2041 12.392 55.2041 18.2C55.2041 24.008 51.2201 27.8 46.1321 27.8ZM92.2939 26.696C90.6139 27.464 88.9339 27.8 87.1579 27.8C81.4939 27.8 77.6539 23.864 77.6539 18.2C77.6539 12.392 81.4939 8.6 87.2539 8.6C90.4699 8.6 93.1099 9.8 95.4139 12.344L101.462 6.872C98.1499 2.888 93.0619 0.727998 86.7739 0.727998C75.8779 0.727998 68.0539 7.976 68.0539 18.2C68.0539 28.424 75.8779 35.672 86.5819 35.672C91.4779 35.672 96.8059 34.184 100.694 31.4V17.48H92.2939V26.696ZM123.663 35.672C134.415 35.672 142.335 28.28 142.335 18.2C142.335 8.12 134.415 0.727998 123.663 0.727998C112.911 0.727998 104.991 8.12 104.991 18.2C104.991 28.28 112.911 35.672 123.663 35.672ZM123.663 27.8C118.575 27.8 114.591 24.008 114.591 18.2C114.591 12.392 118.575 8.6 123.663 8.6C128.751 8.6 132.735 12.392 132.735 18.2C132.735 24.008 128.751 27.8 123.663 27.8Z" fill="#193325"/>
</svg>
